<?xml version="1.0" encoding="utf-8"?>
<!-- Svg Vector Icons : http://www.onlinewebfonts.com/icon -->
<!DOCTYPE svg PUBLIC "-//W3C//DTD SVG 1.1//EN" "http://www.w3.org/Graphics/SVG/1.1/DTD/svg11.dtd">
<svg version="1.1" xmlns="http://www.w3.org/2000/svg" xmlns:xlink="http://www.w3.org/1999/xlink" x="0px" y="0px" viewBox="0 0 1000 1000" enable-background="new 0 0 1000 1000" xml:space="preserve">
<metadata> Svg Vector Icons : http://www.onlinewebfonts.com/icon </metadata>
<g><path d="M708.9,657.8h98.5C759.8,733,632,784,547.6,784V481.8h107.8v-83.3H547.6c0-17.9,0-5.9,0-23.9c0-106.5,93.3-119.8,93.3-223.7C640.9,73.1,577.8,10,500,10c-77.8,0-140.9,63.1-140.9,140.9c0,103.9,93.3,117.2,93.3,223.7c0,18,0,6,0,23.9H344.6v83.3h107.8V784c-84.4,0-212.2-51-259.8-126.2h98.5L77.8,526.2v249l53.6-76C245.4,889.3,400.7,880.9,500,990c99.3-109.1,254.6-100.7,368.7-290.8l53.6,76v-249L708.9,657.8z M500,213.6c-34.5,0-62.6-28.1-62.6-62.6c0-34.5,28.1-62.6,62.6-62.6c34.5,0,62.6,28.1,62.6,62.6C562.6,185.5,534.5,213.6,500,213.6z"/></g>
</svg>