<?xml version="1.0" encoding="utf-8"?>
<!-- Svg Vector Icons : http://www.onlinewebfonts.com/icon -->
<!DOCTYPE svg PUBLIC "-//W3C//DTD SVG 1.1//EN" "http://www.w3.org/Graphics/SVG/1.1/DTD/svg11.dtd">
<svg version="1.1" xmlns="http://www.w3.org/2000/svg" xmlns:xlink="http://www.w3.org/1999/xlink" x="0px" y="0px" viewBox="0 0 1000 1000" enable-background="new 0 0 1000 1000" xml:space="preserve">
<metadata> Svg Vector Icons : http://www.onlinewebfonts.com/icon </metadata>
<g><g><g><path d="M414.4,469.1c1.4-0.2,33.5-4,54-4c7.2,0,12.3,0.5,16,1.5l16.9-9.3c1.5-0.8,3.2-1.2,4.9-1.2c2.2,0,4.3,0,6.1,1.4c0.2,0.1,15.3,10.7,30.4,10.7l1.2-1.4c0.2,0,0.3,0,0.4,0c2.1,0,4.2,2.1,5.9,3.3c1.6,1.2,123.5,89.3,284.8,160c0.5-7.2,1.1-14.3,1.1-21.6c0-181.5-147.1-328.6-328.6-328.6c-175.3,0-318.1,137.3-327.7,310.2c81.1-36.8,158.5-76.7,230.6-119.6C411.7,469.7,413,469.2,414.4,469.1z"/><path d="M834.5,641.1c-165.9-71.7-290.1-161.5-290.1-161.5c-0.5,0-1.1,0-1.7,0c-18.9,0-36.5-13.5-36.5-13.5l-22.3,12.2c0.5-2.4-6.2-3.2-15.5-3.2c-20.2,0-52.9,3.9-52.9,3.9c-79.7,47.4-159.9,87.9-236.1,122.3c-34.5,15.6-68.3,30.1-100.8,43.1c10.4,6.5,19.4,11.9,21.5,11.9c5.1,0-90,46.3-90,46.3l76.1-23.4v6.8v3.4l59.5-11.9l62-14.7l-58.3,39.7l95.9-39.7l19.1,19.8l56.3-59.5l-8.4,51l42.6-23.8c0,0-64.6,68.1-59.5,69.7c0.1,0,0.1,0,0.2,0c7.2,0,98.4-66.4,98.4-66.4s-37.7,51-28.2,54.5c0.8,0.3,2.3,0.4,4.5,0.4c24.1,0,126.8-17.1,175.1-51.5c16.6-11.8,29.5-15.8,39.3-15.8c21.5,0,28.7,19.2,28.7,19.2l78.2,40.8l-32.3-29.7c0,0,5.3-0.5,13.4-0.5c16.1,0,43.3,1.9,61.5,13.2c5.1,3.1,8.2,4.4,10,4.4c8.1,0-10-24.8-10-24.8s125.8,42.5,139.5,44.2c0.4,0,0.7,0.1,1,0.1c9.8,0-40.1-29-40.1-29l81.6,15.3l73.5,7.3c0.2-1.7,0.4-3.3,0.6-5C935.9,681.8,883.5,662.2,834.5,641.1z"/></g></g><g></g><g></g><g></g><g></g><g></g><g></g><g></g><g></g><g></g><g></g><g></g><g></g><g></g><g></g><g></g></g>
</svg>